<?xml version="1.0" encoding="utf-8"?>
<!-- Generator: Adobe Illustrator 19.0.0, SVG Export Plug-In . SVG Version: 6.00 Build 0)  -->
<svg version="1.1" id="Layer_1" xmlns="http://www.w3.org/2000/svg" xmlns:xlink="http://www.w3.org/1999/xlink" x="0px" y="0px"
	 viewBox="0 0 196 238" style="enable-background:new 0 0 196 238;" xml:space="preserve">
<style type="text/css">
	.go0{fill:none;stroke:#ED1F24;stroke-width:5;stroke-miterlimit:10;}
	.go1{fill:#ED1F24;}
</style>
<rect class="goLogoBox go0" id="XMLID_3_" x="13" y="22" class="go0" width="177" height="195.5"/>
<rect id="XMLID_17_" x="33.7" y="129.8" class="go1" width="5" height="58"/>
<rect id="XMLID_16_" x="33.7" y="192.8" class="go1" width="5" height="5"/>
<g id="XMLID_8_">
	<polygon id="XMLID_15_" class="go1" points="90,45.9 111.6,45.9 113,45.9 118,45.9 118,40.9 85,40.9 85,98.9 90,98.9 	"/>
	<polygon id="XMLID_19_" class="go1" points="113,50.9 113,103.9 90,103.9 90,103.9 85,103.9 85,108.9 118,108.9 118,50.9 	"/>
</g>
<g id="XMLID_11_">
	<polygon id="XMLID_18_" class="go1" points="38.7,45.9 62.4,45.9 62.4,40.9 33.7,40.9 33.7,98.9 38.7,98.9 	"/>
	<polygon id="XMLID_20_" class="go1" points="52.4,72.9 52.4,77.9 61.7,77.9 61.7,103.9 38.7,103.9 38.7,103.9 33.7,103.9 
		33.7,108.9 66.7,108.9 66.7,72.9 	"/>
</g>
</svg>
